<svg aria-hidden="true" style="position: absolute; width: 0; height: 0; overflow: hidden;" version="1.1" xmlns="http://www.w3.org/2000/svg" xmlns:xlink="http://www.w3.org/1999/xlink">
<defs>
<symbol id="icon-facebook" viewBox="0 0 16 32">
<path d="M9.87 9.596v-2.546c0-1.254 0.822-1.528 1.41-1.528h3.604v-5.482l-4.936-0.040c-5.522 0-6.776 4.074-6.776 6.698v2.898h-3.172v6.424h3.212v15.98h6.424v-15.98h4.778l0.234-2.508 0.354-3.876h-5.132v-0.040z"></path>
</symbol>
<symbol id="icon-watssapp" viewBox="0 0 32 32">
<path d="M32 15.12c-0.22-8.395-7.164-15.12-15.692-15.12-8.439 0-15.34 6.594-15.692 14.857v0.704c0 2.944 0.836 5.671 2.242 8l-2.857 8.308 8.704-2.77c2.184 1.217 4.79 1.934 7.564 1.934 0.014 0 0.028-0 0.042-0h-0.002c8.66 0 15.692-6.944 15.692-15.516v-0.396zM16.308 28.571c-0.013 0-0.028 0-0.043 0-2.683 0-5.179-0.804-7.26-2.183l0.049 0.030-5.099 1.627 1.671-4.836c-1.593-2.113-2.551-4.783-2.551-7.677 0-0.005 0-0.011 0-0.016v0.001c0-0.439 0.043-0.836 0.043-1.275 0.66-6.594 6.286-11.78 13.143-11.78 6.946 0 12.66 5.317 13.188 12.043 0.044 0.352 0.044 0.66 0.044 1.012 0 7.209-5.934 13.054-13.188 13.054z"></path>
<path d="M23.47 18.681c-0.395-0.176-2.286-1.099-2.636-1.23-0.352-0.132-0.615-0.176-0.88 0.176-0.263 0.395-1.012 1.23-1.23 1.493-0.22 0.265-0.439 0.309-0.836 0.089-0.395-0.176-1.627-0.571-3.076-1.89-0.836-0.757-1.55-1.625-2.126-2.587l-0.028-0.051c-0.22-0.395-0.044-0.571 0.176-0.791 0.176-0.176 0.395-0.439 0.571-0.658 0.044-0.044 0.089-0.133 0.132-0.178 0.089-0.132 0.178-0.263 0.265-0.439 0.132-0.263 0.043-0.484-0.044-0.658-0.018 0.066-0.417-0.861-0.808-1.793l-0.38-1.021c-0.308-0.747-0.658-0.615-0.878-0.615s-0.484-0.044-0.747-0.044c-0.265 0-0.66 0.089-1.013 0.484-0.35 0.396-1.362 1.319-1.362 3.164 0 0.439 0.089 0.88 0.178 1.319 0.395 1.362 1.23 2.462 1.362 2.638 0.176 0.263 2.681 4.219 6.592 5.758 3.913 1.538 3.913 1.010 4.617 0.965 0.702-0.043 2.284-0.923 2.592-1.801 0.309-0.88 0.309-1.671 0.22-1.803 0-0.263-0.263-0.352-0.658-0.528z"></path>
</symbol>
<symbol id="icon-telegram" viewBox="0 0 36 32">
<path d="M35.444 0.822c-0.44-0.53-1.1-0.822-1.854-0.822-0.412 0-0.848 0.086-1.296 0.254l-30.472 11.472c-1.618 0.608-1.836 1.52-1.82 2.012 0.012 0.49 0.282 1.39 1.932 1.908 0.002 0.001 0.012 0.004 0.022 0.006l0.008 0.002 6.32 1.784 3.42 9.64c0.466 1.314 1.512 2.13 2.73 2.13 0.768 0 1.524-0.318 2.186-0.918l3.908-3.55 5.742 4.56c0.63 0.48 1.32 0.736 1.99 0.736 1.314 0 2.36-0.96 2.664-2.44l4.996-24.316c0.2-0.976 0.032-1.85-0.474-2.46zM10.4 17.1l12.194-6.144-7.592 7.956c-0.12 0.126-0.21 0.282-0.254 0.457l-0.002 0.007-1.466 5.848-2.88-8.124zM15.19 26.76c-0.046 0.041-0.095 0.082-0.147 0.12l-0.005 0.004 1.36-5.426 2.47 1.964-3.678 3.34zM33.85 2.868l-4.99 24.314c-0.048 0.232-0.202 0.774-0.598 0.774-0.194 0-0.44-0.104-0.69-0.296l-10.254-8.14 10.98-11.506c0.178-0.185 0.288-0.437 0.288-0.714 0-0.236-0.080-0.454-0.214-0.628l0.002 0.002c-0.196-0.253-0.501-0.415-0.843-0.415-0.175 0-0.341 0.042-0.487 0.118l0.006-0.003-18.060 9.1-6.406-1.808 30.464-11.468c0.159-0.068 0.344-0.11 0.537-0.118l0.003-0c0.066 0 0.18 0.008 0.224 0.060 0.056 0.066 0.126 0.296 0.040 0.728z"></path>
</symbol>
<symbol id="icon-viber" viewBox="0 0 32 32">
<path d="M28.391 3.116c-0.836-0.729-4.224-3.063-11.776-3.093 0 0-8.905-0.507-13.241 3.269-2.411 2.286-3.262 5.643-3.355 9.799-0.091 4.156-0.203 11.943 7.712 14.052h0.007l-0.007 3.227s-0.053 1.307 0.857 1.568c1.095 0.325 1.74-0.667 2.786-1.737 0.574-0.587 1.367-1.451 1.964-2.107 5.419 0.432 9.577-0.556 10.052-0.699 1.093-0.338 7.282-1.088 8.284-8.875 1.040-8.036-0.503-13.111-3.284-15.404zM29.308 17.934c-0.852 6.498-5.867 6.912-6.789 7.191-0.396 0.121-4.053 0.983-8.645 0.7 0 0-3.428 3.918-4.494 4.937-0.35 0.332-0.732 0.302-0.725-0.356 0-0.43 0.027-5.355 0.027-5.355-0.005 0-0.005 0 0 0-6.708-1.764-6.316-8.395-6.24-11.861 0.071-3.468 0.764-6.313 2.805-8.226 3.671-3.156 11.23-2.684 11.23-2.684 6.386 0.023 9.444 1.847 10.155 2.46 2.352 1.911 3.552 6.489 2.677 13.191zM20.148 12.885c0.025 0.535-0.825 0.574-0.85 0.036-0.071-1.374-0.752-2.043-2.149-2.119-0.569-0.032-0.514-0.836 0.046-0.805 1.838 0.094 2.862 1.093 2.951 2.889zM21.484 13.591c0.068-2.649-1.68-4.727-4.996-4.956-0.56-0.037-0.5-0.844 0.060-0.807 3.822 0.263 5.858 2.756 5.787 5.781-0.007 0.539-0.864 0.516-0.852-0.018zM24.581 14.427c0.009 0.539-0.85 0.544-0.85 0.007-0.037-5.093-3.616-7.867-7.961-7.899-0.56-0.007-0.56-0.807 0-0.807 4.857 0.032 8.764 3.212 8.811 8.699zM23.838 20.558v0.014c-0.711 1.186-2.044 2.5-3.413 2.080l-0.014-0.018c-1.388-0.372-4.665-1.97-6.736-3.531-1.046-0.792-1.963-1.663-2.774-2.625l-0.021-0.026c-0.72-0.857-1.39-1.81-1.975-2.819l-0.052-0.097c-1.404-2.404-1.714-3.477-1.714-3.477-0.444-1.301 0.935-2.562 2.194-3.237h0.014c0.604-0.302 1.186-0.201 1.573 0.244 0 0 0.818 0.924 1.166 1.38 0.331 0.427 0.772 1.106 1.003 1.488 0.402 0.681 0.151 1.374-0.245 1.662l-0.789 0.601c-0.402 0.306-0.35 0.873-0.35 0.873s1.173 4.206 5.556 5.269c0 0 0.601 0.050 0.924-0.331l0.631-0.752c0.302-0.373 1.035-0.612 1.753-0.231 0.969 0.519 2.201 1.326 3.019 2.057 0.462 0.356 0.565 0.901 0.249 1.476z"></path>
</symbol>
<symbol id="icon-telefone" viewBox="0 0 40 32">
<path stroke-linejoin="round" stroke-linecap="round" stroke-miterlimit="10" stroke-width="2.6667" d="M6.253 1.333l-4.405 3.869c-2 2 2.001 9.072 8.805 16.009 6.937 6.937 14.141 10.94 16.143 8.939l3.871-4.403-6.671-5.736-5.336 2.667-9.34-9.339 2.669-5.336-5.737-6.671z"></path>
<path stroke-linejoin="round" stroke-linecap="round" stroke-miterlimit="10" stroke-width="2.6667" d="M26.667 13.34c0-4.401-3.603-8.004-8.005-8.004"></path>
<path stroke-linejoin="round" stroke-linecap="round" stroke-miterlimit="10" stroke-width="2.6667" d="M30.667 12.007c0-5.871-4.8-10.673-10.671-10.673"></path>
</symbol>
<symbol id="icon-stars" viewBox="0 0 34 32">
<path stroke-linejoin="round" stroke-linecap="round" stroke-miterlimit="10" stroke-width="3.2" d="M18.381 24.509c-0.39-0.261-1.171-0.261-1.691 0l-8.322 5.76c-0.39 0.262-0.65 0.131-0.52-0.392l2.47-8.902c0.13-0.523 0-1.309-0.39-1.701l-6.501-6.677c-0.39-0.394-0.261-0.786 0.259-0.786l8.582-0.784c0.52 0 1.17-0.525 1.43-1.050l3.51-7.984c0.261-0.525 0.52-0.525 0.781 0l3.51 7.984c0.261 0.525 0.781 0.917 1.43 1.048l8.582 0.784c0.52 0 0.65 0.394 0.259 0.787l-6.501 6.677c-0.39 0.392-0.52 1.178-0.39 1.701l2.47 8.902c0.13 0.523-0.13 0.654-0.52 0.392l-8.451-5.76z"></path>
</symbol>
<symbol id="icon-arrow-down" viewBox="0 0 55 32">
<path stroke-linejoin="round" stroke-linecap="round" stroke-miterlimit="10" stroke-width="9.1429" d="M50.286 4.571l-22.857 22.857-22.857-22.857"></path>
</symbol>
</defs>
</svg>
