<svg width="21" height="20" fill="none" xmlns="http://www.w3.org/2000/svg"><path d="M11.488 15.318c-.244-.163-.732-.163-1.057 0l-5.201 3.6c-.244.164-.406.082-.325-.245l1.544-5.564c.081-.327 0-.818-.244-1.063L2.142 7.873c-.244-.246-.163-.491.162-.491l5.364-.49c.325 0 .731-.328.894-.656l2.194-4.99c.163-.328.325-.328.488 0l2.194 4.99c.163.328.488.573.894.655l5.364.49c.325 0 .406.246.162.492l-4.063 4.173c-.244.245-.325.736-.244 1.063l1.544 5.564c.081.327-.081.409-.325.245l-5.282-3.6z" stroke="url(#paint0_linear)" stroke-width="2" stroke-miterlimit="10" stroke-linecap="round" stroke-linejoin="round"/><defs><linearGradient id="paint0_linear" x1="20" y1="19" x2="-.763" y2="14.862" gradientUnits="userSpaceOnUse"><stop stop-color="#2382E0"/><stop offset="1" stop-color="#18A0FB"/></linearGradient></defs></svg>