<svg width="18" height="16" fill="none" xmlns="http://www.w3.org/2000/svg"><path d="M17.722.411c-.22-.265-.55-.411-.927-.411-.206 0-.424.043-.648.127L.911 5.863c-.809.304-.918.76-.91 1.006.006.245.141.695.966.954a.59.59 0 00.015.004l3.16.892 1.71 4.82c.233.657.756 1.065 1.365 1.065.384 0 .762-.159 1.093-.459l1.954-1.775 2.836 2.252.028.022.007.006c.315.24.66.368.995.368.657 0 1.18-.48 1.332-1.22L17.96 1.64c.1-.488.016-.925-.237-1.23zM5.2 8.55l6.097-3.072-3.796 3.978a.517.517 0 00-.128.232l-.733 2.924L5.2 8.55zm2.395 4.83a.987.987 0 01-.076.062l.68-2.713 1.235.982-1.839 1.67zm9.33-11.946L14.43 13.591c-.024.116-.101.387-.299.387-.097 0-.22-.052-.345-.148l-3.213-2.55-.001-.002L8.659 9.76l5.49-5.753a.515.515 0 00.038-.67.532.532 0 00-.662-.15l-9.03 4.55-3.203-.904 15.232-5.734a.783.783 0 01.27-.059c.033 0 .09.004.112.03.028.033.063.148.02.364z" fill="#fff"/></svg>