<svg width="18" height="18" fill="none" xmlns="http://www.w3.org/2000/svg"><path fill-rule="evenodd" clip-rule="evenodd" d="M15.97 1.753C15.5 1.343 13.594.03 9.346.013c0 0-5.009-.285-7.448 1.839C.542 3.138.063 5.026.011 7.364c-.051 2.338-.114 6.718 4.338 7.904h.004l-.004 1.815s-.03.735.482.882c.616.183.979-.375 1.567-.977.323-.33.769-.816 1.105-1.185 3.048.243 5.387-.313 5.654-.393.615-.19 4.096-.612 4.66-4.992.585-4.52-.283-7.375-1.847-8.665zm.516 8.335c-.479 3.655-3.3 3.888-3.819 4.045-.223.068-2.28.553-4.863.394 0 0-1.928 2.204-2.528 2.777-.197.187-.412.17-.408-.2 0-.242.015-3.012.015-3.012-.003 0-.003 0 0 0C1.11 13.1 1.33 9.37 1.373 7.42c.04-1.951.43-3.551 1.578-4.627 2.065-1.775 6.317-1.51 6.317-1.51 3.592.013 5.312 1.039 5.712 1.384 1.323 1.075 1.998 3.65 1.506 7.42zm-5.153-2.84c.014.301-.464.323-.478.02-.04-.773-.423-1.149-1.209-1.192-.32-.018-.289-.47.026-.453 1.034.053 1.61.615 1.66 1.625zm.752.397c.038-1.49-.945-2.659-2.81-2.788-.315-.021-.281-.475.034-.454 2.15.148 3.295 1.55 3.255 3.252-.004.303-.486.29-.479-.01zm1.742.47c.005.303-.478.306-.478.004-.021-2.865-2.034-4.425-4.478-4.443-.315-.004-.315-.454 0-.454 2.732.018 4.93 1.807 4.956 4.893zm-.418 3.449v.008c-.4.667-1.15 1.406-1.92 1.17l-.008-.01c-.781-.209-2.624-1.108-3.789-1.986A9.511 9.511 0 016.12 9.255a11.346 11.346 0 01-1.14-1.64c-.79-1.352-.964-1.956-.964-1.956-.25-.732.526-1.441 1.234-1.821h.008c.34-.17.667-.113.885.137 0 0 .46.52.656.776.186.24.434.622.564.837.226.383.085.773-.138.935l-.444.338c-.226.172-.197.491-.197.491s.66 2.366 3.125 2.964c0 0 .338.028.52-.186l.355-.423c.17-.21.582-.344.986-.13.545.292 1.238.746 1.698 1.157.26.2.318.507.14.83z" fill="#fff"/></svg>