<svg width="18" height="18" fill="none" xmlns="http://www.w3.org/2000/svg"><path d="M18 8.505C17.876 3.783 13.97 0 9.173 0 4.426 0 .544 3.709.346 8.357v.396c0 1.656.47 3.19 1.261 4.5L0 17.926l4.896-1.558a8.863 8.863 0 004.277 1.088c4.871 0 8.827-3.906 8.827-8.728v-.223zm-8.827 7.566a7.398 7.398 0 01-4.08-1.211l-2.868.915.94-2.72A7.215 7.215 0 011.73 8.728c0-.247.024-.47.024-.717.371-3.709 3.536-6.626 7.393-6.626 3.907 0 7.121 2.991 7.418 6.774.025.198.025.371.025.569 0 4.055-3.338 7.343-7.418 7.343z" fill="#fff"/><path d="M13.202 10.508c-.222-.099-1.286-.618-1.483-.692-.198-.074-.346-.099-.495.099-.148.222-.569.692-.692.84-.124.149-.247.174-.47.05-.222-.099-.915-.321-1.73-1.063A6.35 6.35 0 017.12 8.258c-.124-.222-.025-.321.099-.445.099-.099.222-.247.321-.37.025-.025.05-.075.074-.1.05-.074.1-.148.149-.247.074-.148.024-.272-.025-.37a87.122 87.122 0 01-.668-1.583c-.173-.42-.37-.346-.494-.346s-.272-.025-.42-.025c-.149 0-.371.05-.57.272-.197.223-.766.742-.766 1.78 0 .247.05.495.1.742.222.766.692 1.385.766 1.484.099.148 1.508 2.373 3.708 3.239 2.201.865 2.201.568 2.597.543.395-.024 1.285-.519 1.458-1.013.174-.495.174-.94.124-1.014 0-.148-.148-.198-.37-.297z" fill="#fff"/></svg>